<svg data-v-0dd9719b="" version="1.0" xmlns="http://www.w3.org/2000/svg" xmlns:xlink="http://www.w3.org/1999/xlink" width="100%" height="100%" viewBox="0 0 340.000000 250.000000" preserveAspectRatio="xMidYMid meet" color-interpolation-filters="sRGB" style="margin: auto;"> <rect data-v-0dd9719b="" x="0" y="0" width="100%" height="100%" fill="#ffffff" fill-opacity="1" class="background"></rect> <rect data-v-0dd9719b="" x="0" y="0" width="100%" height="100%" fill="url(#watermark)" fill-opacity="1" class="watermarklayer"></rect> <g data-v-0dd9719b="" fill="#fd9248" class="icon-text-wrapper icon-svg-group iconsvg" transform="translate(67.96499633789062,95)"><g class="iconsvg-imagesvg" transform="translate(0,0)" mask="url(#e91c60c2-a526-4a41-903c-9a756e274418)"><g><rect fill="#fd9248" fill-opacity="0" stroke-width="2" x="0" y="0" width="60" height="60" class="image-rect"></rect> <svg filter="url(#colors8300899265)" x="0" y="0" width="60" height="60" filtersec="colorsf1629684055" class="image-svg-svg primary" style="overflow: visible;"><svg viewBox="0 0 512 512" xmlns="http://www.w3.org/2000/svg"><path d="M391.5 135.5C325.056 135.5 271 189.556 271 256c0 47.387 27.5 88.467 67.375 108.137 24.856-18.98 43.005-46.315 50.206-77.779C373.128 284.883 361 271.833 361 256c0-16.818 13.682-30.5 30.5-30.5S422 239.182 422 256c0 91.533-74.467 166-166 166-21.97 0-43.34-4.244-63.519-12.615l-13.868-5.754-34.449 83.169 13.837 5.742C189.117 505.455 222.085 512 256 512c68.38 0 132.667-26.628 181.02-74.98a260.181 260.181 0 0 0 21.213-23.994C493.098 368.309 512 313.607 512 256c0-66.444-54.056-120.5-120.5-120.5z" fill="#000000"></path><path d="M241 256c0-47.387-27.5-88.467-67.375-108.137-24.856 18.98-43.005 46.315-50.206 77.779C138.872 227.117 151 240.167 151 256c0 16.818-13.682 30.5-30.5 30.5S90 272.818 90 256c0-91.533 74.467-166 166-166 21.97 0 43.34 4.244 63.519 12.615l13.868 5.754L367.836 25.2l-13.837-5.742C322.883 6.545 289.915 0 256 0 187.62 0 123.333 26.628 74.98 74.98a260.181 260.181 0 0 0-21.213 23.994C18.902 143.691 0 198.393 0 256c0 66.444 54.056 120.5 120.5 120.5S241 322.444 241 256z" fill="#000000"></path></svg></svg> <defs><filter id="colors8300899265"><feColorMatrix type="matrix" values="0 0 0 0 0.98828125  0 0 0 0 0.5703125  0 0 0 0 0.28125  0 0 0 1 0" class="icon-fecolormatrix"></feColorMatrix></filter> <filter id="colorsf1629684055"><feColorMatrix type="matrix" values="0 0 0 0 0.99609375  0 0 0 0 0.99609375  0 0 0 0 0.99609375  0 0 0 1 0" class="icon-fecolormatrix"></feColorMatrix></filter> <filter id="colorsb3534119908"><feColorMatrix type="matrix" values="0 0 0 0 0  0 0 0 0 0  0 0 0 0 0  0 0 0 1 0" class="icon-fecolormatrix"></feColorMatrix></filter></defs></g><rect v-gra="id" width="72" height="72" transform="translate(-6, -6)" style="pointer-events:none;" fill="url(#Qy9o4kYg0k5O1uAMR9T-J)"></rect></g> <g transform="translate(67,3.3787498474121094)"><g data-gra="path-name" fill-rule="" class="tp-name iconsvg-namesvg" transform="translate(0,0)" fill="url(#e217d11d-9bc1-41be-a348-a9c3c5c0db10)"><g transform="scale(1)"><g><path d="M6.57-21.91Q6.48-22.18 5.83-24.41 5.17-26.64 3.92-29.43L3.92-29.43 8.69-29.43Q10.89-23.8 11.34-21.91L11.34-21.91 6.57-21.91ZM6.52-11.65Q5.35-15.52 3.87-19.13L3.87-19.13 8.64-19.13Q9.36-17.28 10.17-15.03 10.98-12.78 11.29-11.65L11.29-11.65 6.52-11.65ZM10.89-8.78Q10.8-6.08 10.46-3.51 10.13-0.94 9.27 4L9.27 4 8.78 6.88 4.27 6.88Q6.21-1.8 6.75-8.78L6.75-8.78 10.89-8.78ZM13.32-8.73Q17.01-9.81 20.09-11.34 23.18-12.87 26.23-16.18 29.29-19.48 31.32-24.88L31.32-24.88 31.32-28.17 19.84-28.17 18.99-24.39 26.37-24.39Q25.79-22.36 23.8-20.09 21.82-17.82 19.04-15.93 16.25-14.04 13.32-13.18L13.32-13.18 13.32-8.73ZM13.32-16.65Q17.05-18.95 19.73-22.97 22.41-27 23.13-31.09L23.13-31.09 18.86-31.09Q18.45-28.89 17.03-26.32 15.62-23.76 13.32-21.51L13.32-21.51 13.32-16.65ZM33.3-14.67Q31.5-15.07 28.87-16.63 26.23-18.18 23.83-20.23 21.42-22.27 20.25-24.12L20.25-24.12 17.19-21.55Q18.9-18.9 21.64-16.56 24.39-14.22 27.49-12.62 30.6-11.03 33.3-10.44L33.3-10.44 33.3-14.67ZM32.04 6.34L32.04-8.87 14.76-8.87 14.76 6.34 32.04 6.34ZM18.95-4.72L27.95-4.72 27.95 2.48 18.95 2.48 18.95-4.72ZM59.98-24.07L63.95-24.07 63.95-0.09 60.12-0.14 59.98-24.07ZM55.26 4.72L68.63 4.72 68.63-28.84 55.39-28.84 55.26 4.72ZM57.78-14.04L57.78-9.27 66.56-9.27 66.56-14.04 57.78-14.04ZM46.35 6.48L46.35-3.06 49.45-0.49Q51.34-1.3 52.65-3.67 53.95-6.03 53.95-9.18L53.95-9.18Q53.95-13.23 51.57-17.41L51.57-17.41Q52.65-19.39 53.12-22 53.59-24.61 54.09-29.38L54.09-29.38 41.63-29.47 41.09 6.48 46.35 6.48ZM46.35-3.46L46.35-17.32 46.35-25.47 48.91-25.47Q48.78-22.9 48.13-21.15 47.48-19.39 46.35-17.37L46.35-17.37Q49.37-12.15 49.37-8.5L49.37-8.5Q49.37-6.43 48.49-5.17 47.61-3.92 46.35-3.46L46.35-3.46ZM79.33 6.66Q81.18 3.82 82.03-2.48L82.03-2.48 77.49-2.48Q77.58-1.03 76.57 1.8 75.56 4.63 74.52 6.66L74.52 6.66 79.33 6.66ZM102.02-19.17L92.34-19.17 92.34-22.18 104.85-22.18 104.85-26.46 92.34-26.46 92.34-31.09 86.67-31.05 86.67-19.17 78.34-19.17 78.34-4.91 102.02-4.91 102.02-19.17ZM84.28-2.48Q85.41 1.8 86 6.66L86 6.66 90.41 6.66Q90.22 4.46 89.71 1.89 89.19-0.67 88.65-2.48L88.65-2.48 84.28-2.48ZM97.16-8.87L83.7-8.87 83.7-14.89 97.16-14.89 97.16-8.87ZM91.08-2.48Q92.92 3.42 93.28 6.66L93.28 6.66 97.83 6.66Q97.65 5.17 97.16 3.13 96.66 1.08 95.58-2.48L95.58-2.48 91.08-2.48ZM98.86-2.48Q101.2 2.88 101.88 6.66L101.88 6.66 106.38 6.66Q106.16 5.4 105.7 4.07 105.25 2.75 104.72 1.17L104.72 1.17Q104.49 0.63 103.36-2.48L103.36-2.48 98.86-2.48ZM133.92-24.39Q133.65-23.31 133.06-22 132.48-20.7 131.76-19.8L131.76-19.8 121.19-19.8 121.19-16.56 140.58-16.56 140.58-19.8 136.26-19.8Q136.57-20.38 137.79-23.54L137.79-23.54Q137.88-23.76 138.1-24.39L138.1-24.39 133.92-24.39ZM129.47-20.29Q129.28-20.75 128.97-21.44 128.66-22.14 128.43-22.81 128.2-23.49 128.03-24.39L128.03-24.39 124.38-24.39Q125.1-21.33 125.78-20.29L125.78-20.29 129.47-20.29ZM140.94-25.06L140.94-28.62 133.11-28.62 132.53-31.41 127.53-31.36 128.12-28.62 120.73-28.62 120.73-25.06 140.94-25.06ZM125.55-17.82L121.19-17.82 121.19 6.88 125.55 6.88 125.55-17.82ZM133.56 3.46L134.69 6.79 137.75 6.79Q139.37 6.79 139.97 5.94 140.58 5.08 140.58 3.65L140.58 3.65 140.58-18.18 136.17-18.18 136.17 3.46 133.56 3.46ZM130.19-4.81L131.67-4.81 131.67-0.54 130.19-0.54 130.19-4.81ZM126.86 2.07L134.91 2.07 134.91-7.38 126.94-7.38 126.86 2.07ZM126.22-13.05L126.22-10.08 135.54-10.08 135.54-13.05 126.22-13.05ZM132.57-15.75L129.24-15.75 129.24-7.02 132.57-7.02 132.57-15.75ZM114.34-22.68L111.47-30.42 115.88-30.42 118.75-22.68 114.34-22.68ZM115.06-8.96L119.56-8.96 116.28 6.12 111.47 6.12 115.06-8.96ZM115.33-11.97L112.45-19.71 116.86-19.71 119.75-11.97 115.33-11.97Z" transform="translate(-3.869999885559082, 31.40999984741211)"></path></g> <!----> <!----> <!----> <!----> <!----> <!----> <!----></g></g> <g data-gra="path-slogan" fill-rule="" class="tp-slogan iconsvg-slogansvg" fill="#0a0619" transform="translate(18.355003356933594,44.290000915527344)"><!----> <!----> <g transform="scale(1, 1)"><g transform="scale(1)"><path d="M0.89-8.58L2.06-8.58L2.06-1.03L6.42-1.03L6.42 0L0.89 0L0.89-8.58ZM13.22-3.19L13.22-8.58L14.39-8.58L14.39-3.05Q14.25 0.05 10.88 0.14L10.88 0.14Q7.73 0.05 7.59-2.86L7.59-2.86L7.59-8.58L8.77-8.58L8.77-3.19Q8.81-0.84 10.92-0.80L10.92-0.80Q13.22-0.84 13.22-3.19L13.22-3.19ZM22.97-4.27L22.97-4.27Q22.78-7.64 19.97-7.83L19.97-7.83Q17.11-7.69 16.97-4.27L16.97-4.27Q17.11-0.94 19.97-0.80L19.97-0.80Q22.78-0.98 22.97-4.27ZM24.14-4.27L24.14-4.27Q23.86 0 19.97 0.14L19.97 0.14Q16.03 0 15.75-4.27L15.75-4.27Q15.98-8.72 19.97-8.81L19.97-8.81Q23.86-8.67 24.14-4.27ZM32.44-8.58L29.20-3.47L29.20 0L28.03 0L28.03-3.47L24.80-8.58L26.16-8.58L28.59-4.45L31.08-8.58L32.44-8.58ZM39.14 0L38.30-2.48L34.83-2.48L33.94 0L32.77 0L36-8.58L37.31-8.58L40.41 0L39.14 0ZM36.56-7.31L35.20-3.52L37.88-3.52L36.61-7.31L36.56-7.31ZM42.84-8.58L47.16-1.64L47.16-8.58L48.28-8.58L48.28 0L46.97 0L42.61-6.94L42.56-6.94L42.56 0L41.44 0L41.44-8.58L42.84-8.58ZM56.48-3.61L53.86-3.61L53.86-4.59L57.61-4.59L57.61 0L56.86 0L56.58-1.08Q55.59 0.09 53.77 0.14L53.77 0.14Q52.03 0.14 51.09-0.75L51.09-0.75Q49.69-2.06 49.73-4.36L49.73-4.36Q50.06-8.63 53.81-8.81L53.81-8.81Q57-8.63 57.47-6L57.47-6L56.34-6Q55.88-7.78 53.77-7.83L53.77-7.83Q51.09-7.64 50.95-4.31L50.95-4.31Q50.95-0.75 53.81-0.75L53.81-0.75Q54.84-0.75 55.59-1.31L55.59-1.31Q56.53-2.06 56.48-3.61L56.48-3.61ZM66.23 0L62.77 0L62.77-8.58L66.28-8.58Q69.75-8.39 69.89-4.41L69.89-4.41Q69.70-0.09 66.23 0L66.23 0ZM66.09-7.64L63.94-7.64L63.94-0.98L66.19-0.98Q68.63-1.13 68.72-4.31L68.72-4.31Q68.67-7.55 66.09-7.64L66.09-7.64ZM71.53-8.58L72.70-8.58L72.70 0L71.53 0L71.53-8.58ZM80.34 0L79.50-2.48L76.03-2.48L75.14 0L73.97 0L77.20-8.58L78.52-8.58L81.61 0L80.34 0ZM77.77-7.31L76.41-3.52L79.08-3.52L77.81-7.31L77.77-7.31ZM84.05-8.58L88.36-1.64L88.36-8.58L89.48-8.58L89.48 0L88.17 0L83.81-6.94L83.77-6.94L83.77 0L82.64 0L82.64-8.58L84.05-8.58ZM94.78 0L91.31 0L91.31-8.58L94.83-8.58Q98.30-8.39 98.44-4.41L98.44-4.41Q98.25-0.09 94.78 0L94.78 0ZM94.64-7.64L92.48-7.64L92.48-0.98L94.73-0.98Q97.17-1.13 97.27-4.31L97.27-4.31Q97.22-7.55 94.64-7.64L94.64-7.64ZM100.08-8.58L101.25-8.58L101.25 0L100.08 0L100.08-8.58Z" transform="translate(-0.890625, 8.8125)"></path></g></g></g></g></g><defs v-gra="od"><linearGradient x1="0" y1="1" x2="0" y2="0" id="e217d11d-9bc1-41be-a348-a9c3c5c0db10"><stop offset="0%" stop-color="#fd9248"></stop><stop offset="50%" stop-color="#fa1768"></stop><stop offset="100%" stop-color="#f001ff"></stop></linearGradient><filter id="42443b3f1de60f6b6fd3b6a9844b4764" filterUnits="objectBoundingBox"><feColorMatrix type="matrix" values="0 0 0 0 0.99609375  0 0 0 0 0.99609375  0 0 0 0 0.99609375  0 0 0 1 0"></feColorMatrix></filter></defs><defs v-gra="id"><filter id="1e0fec63-5416-447b-aabc-5777e6e105a5" filterUnits="userSpaceOnUse"><feColorMatrix type="matrix" values="0 0 0 0 0.99609375  0 0 0 0 0.99609375  0 0 0 0 0.99609375  0 0 0 1 0"></feColorMatrix></filter><linearGradient x1="0" y1="1" x2="0" y2="0" id="Qy9o4kYg0k5O1uAMR9T-J"><stop offset="0%" stop-color="#fd9248"></stop><stop offset="50%" stop-color="#fa1768"></stop><stop offset="100%" stop-color="#f001ff"></stop></linearGradient><filter id="42443b3f1de60f6b6fd3b6a9844b4764" filterUnits="objectBoundingBox"><feColorMatrix type="matrix" values="0 0 0 0 0.99609375  0 0 0 0 0.99609375  0 0 0 0 0.99609375  0 0 0 1 0"></feColorMatrix></filter></defs><mask v-gra="im" id="e91c60c2-a526-4a41-903c-9a756e274418"><g class="iconsvg-imagesvg" filter="url(#1e0fec63-5416-447b-aabc-5777e6e105a5)"><g><rect fill="#fd9248" fill-opacity="0" stroke-width="2" x="0" y="0" width="60" height="60" class="image-rect"></rect> <svg x="0" y="0" width="60" height="60" filtersec="colorsf1629684055" class="image-svg-svg primary" style="overflow: visible;"><svg viewBox="0 0 512 512" xmlns="http://www.w3.org/2000/svg"><path d="M391.5 135.5C325.056 135.5 271 189.556 271 256c0 47.387 27.5 88.467 67.375 108.137 24.856-18.98 43.005-46.315 50.206-77.779C373.128 284.883 361 271.833 361 256c0-16.818 13.682-30.5 30.5-30.5S422 239.182 422 256c0 91.533-74.467 166-166 166-21.97 0-43.34-4.244-63.519-12.615l-13.868-5.754-34.449 83.169 13.837 5.742C189.117 505.455 222.085 512 256 512c68.38 0 132.667-26.628 181.02-74.98a260.181 260.181 0 0 0 21.213-23.994C493.098 368.309 512 313.607 512 256c0-66.444-54.056-120.5-120.5-120.5z" fill="#000000"></path><path d="M241 256c0-47.387-27.5-88.467-67.375-108.137-24.856 18.98-43.005 46.315-50.206 77.779C138.872 227.117 151 240.167 151 256c0 16.818-13.682 30.5-30.5 30.5S90 272.818 90 256c0-91.533 74.467-166 166-166 21.97 0 43.34 4.244 63.519 12.615l13.868 5.754L367.836 25.2l-13.837-5.742C322.883 6.545 289.915 0 256 0 187.62 0 123.333 26.628 74.98 74.98a260.181 260.181 0 0 0-21.213 23.994C18.902 143.691 0 198.393 0 256c0 66.444 54.056 120.5 120.5 120.5S241 322.444 241 256z" fill="#000000"></path></svg></svg> <defs><filter id="colors8300899265"><feColorMatrix type="matrix" values="0 0 0 0 0.98828125  0 0 0 0 0.5703125  0 0 0 0 0.28125  0 0 0 1 0" class="icon-fecolormatrix"></feColorMatrix></filter> <filter id="colorsf1629684055"><feColorMatrix type="matrix" values="0 0 0 0 0.99609375  0 0 0 0 0.99609375  0 0 0 0 0.99609375  0 0 0 1 0" class="icon-fecolormatrix"></feColorMatrix></filter> <filter id="colorsb3534119908"><feColorMatrix type="matrix" values="0 0 0 0 0  0 0 0 0 0  0 0 0 0 0  0 0 0 1 0" class="icon-fecolormatrix"></feColorMatrix></filter></defs></g></g></mask></svg>